<?xml version="1.0" standalone="no"?>
<!DOCTYPE svg PUBLIC "-//W3C//DTD SVG 20010904//EN"
 "http://www.w3.org/TR/2001/REC-SVG-20010904/DTD/svg10.dtd">
<svg version="1.0" xmlns="http://www.w3.org/2000/svg"
 width="700.000000pt" height="700.000000pt" viewBox="0 0 700.000000 700.000000"
 preserveAspectRatio="xMidYMid meet">
<metadata>
Created by potrace 1.14, written by Peter Selinger 2001-2017
</metadata>
<g transform="translate(0.000000,700.000000) scale(0.100000,-0.100000)"
fill="#000000" stroke="none">
<path d="M3208 6995 c-1 -1 -39 -6 -83 -9 -44 -3 -96 -8 -115 -11 -19 -2 -53
-6 -75 -9 -44 -6 -65 -9 -175 -31 -119 -23 -121 -23 -200 -44 -486 -127 -928
-352 -1315 -670 -131 -109 -318 -292 -415 -406 -23 -27 -52 -61 -64 -75 -44
-51 -147 -193 -209 -287 -271 -412 -468 -939 -522 -1391 -3 -26 -8 -56 -10
-67 -12 -61 -20 -215 -20 -400 0 -279 13 -432 57 -655 33 -170 34 -175 79
-329 48 -159 53 -174 124 -346 141 -340 343 -662 599 -953 69 -78 251 -256
339 -329 279 -236 549 -403 874 -541 177 -76 444 -164 573 -188 14 -3 33 -7
42 -10 20 -6 22 -6 183 -33 125 -20 214 -31 300 -37 97 -6 411 -6 480 0 88 8
171 17 199 21 11 2 43 6 70 10 236 30 584 128 828 234 158 68 204 91 368 181
86 48 336 220 445 307 136 108 363 333 479 473 228 275 420 599 549 925 47
120 103 286 108 320 1 6 5 20 10 33 5 12 11 33 13 45 3 12 7 31 10 42 36 154
40 176 51 245 2 14 7 45 11 70 9 53 8 42 18 150 4 47 10 101 12 120 5 47 5
427 0 465 -2 17 -7 70 -11 120 -4 49 -8 92 -10 95 -2 3 -6 30 -10 60 -14 113
-50 278 -105 475 -78 281 -264 670 -449 940 -176 258 -438 545 -646 710 -27
22 -52 43 -55 46 -10 12 -166 124 -248 178 -172 114 -363 215 -557 296 -49 20
-99 41 -110 46 -24 10 -230 79 -254 84 -9 2 -68 17 -131 33 -118 31 -308 66
-415 77 -33 4 -71 9 -85 12 -28 5 -526 13 -532 8z"/>
</g>
</svg>
